<?xml version="1.0" encoding="utf-8"?><svg xmlns="http://www.w3.org/2000/svg" viewBox="0 0 50.18 50.18"><defs><style>.cls-1{fill:#fff;}</style></defs><title>Ativo 7behance</title><g id="Camada_2" data-name="Camada 2"><g id="Objects"><path class="cls-1" d="M33.3,22.94a2.87,2.87,0,0,0-2.86,2.94H37C36.78,23.81,35.52,22.82,33.3,22.94Z"/><path class="cls-1" d="M18.94,27.56a1.85,1.85,0,0,0-.71-.2c-1.8,0-3.6,0-5.43,0v3.93c1.74,0,3.42,0,5.09,0a3,3,0,0,0,1-.23,1.85,1.85,0,0,0,1.4-1.7A2,2,0,0,0,18.94,27.56Z"/><path class="cls-1" d="M18.32,19.33c-1.82-.12-3.65,0-5.51,0v3.91h3.67a11.66,11.66,0,0,0,1.87-.1,2.13,2.13,0,0,0,1.93-1.92A2,2,0,0,0,18.32,19.33Z"/><path class="cls-1" d="M25.09,0A25.09,25.09,0,1,0,50.18,25.09,25.09,25.09,0,0,0,25.09,0Zm-5.2,35a14.79,14.79,0,0,1-2.74.26c-2.8,0-5.6,0-8.41,0V15.14c3,0,6,0,9,0a11,11,0,0,1,2.91.42,4.56,4.56,0,0,1,3.51,3.84A4.66,4.66,0,0,1,22,24.3c-.05,0-.08.09-.15.17a5.1,5.1,0,0,1,3,4.65C25,32.06,23,34.38,19.89,35ZM29,15.18h9.33V17.8H29ZM41,28.6H30.36A3.34,3.34,0,0,0,34,32.29a9.55,9.55,0,0,0,2.16-.79,1.69,1.69,0,0,1,.54-.2c1.28,0,2.55,0,4,0a13,13,0,0,1-.66,1.2,6.9,6.9,0,0,1-5.56,2.79A11,11,0,0,1,31.35,35a6.47,6.47,0,0,1-5-6.07,10.09,10.09,0,0,1,.84-5.52,7.06,7.06,0,0,1,7.41-3.63c3.69.48,5.68,2.43,6.29,6.17a1.2,1.2,0,0,0,.11.23Z"/></g></g></svg>