<?xml version="1.0" encoding="utf-8"?><svg xmlns="http://www.w3.org/2000/svg" viewBox="0 0 50.37 50.37"><defs><style>.cls-1{fill:#fff;}</style></defs><title>Ativo 8insta</title><g id="Camada_2" data-name="Camada 2"><g id="Objects"><path class="cls-1" d="M36.68,16.46a4.6,4.6,0,0,0-1.11-1.7,4.49,4.49,0,0,0-1.71-1.1,7.9,7.9,0,0,0-2.76-.51c-1.56-.07-2-.09-6-.09s-4.43,0-6,.09a7.88,7.88,0,0,0-2.75.51,4.42,4.42,0,0,0-1.71,1.1,4.6,4.6,0,0,0-1.11,1.7A8.31,8.31,0,0,0,13,19.2c-.07,1.55-.09,2-.09,6s0,4.41.09,6a8.31,8.31,0,0,0,.51,2.74,4.6,4.6,0,0,0,1.11,1.7,4.66,4.66,0,0,0,1.71,1.1,8.39,8.39,0,0,0,2.75.51c1.57.07,2,.08,6,.08s4.44,0,6-.08a8.41,8.41,0,0,0,2.76-.51,4.75,4.75,0,0,0,1.71-1.1,4.6,4.6,0,0,0,1.11-1.7,8.31,8.31,0,0,0,.51-2.74c.07-1.56.09-2,.09-6s0-4.41-.09-6A8.31,8.31,0,0,0,36.68,16.46ZM25.1,32.74a7.58,7.58,0,1,1,7.63-7.58A7.6,7.6,0,0,1,25.1,32.74ZM33,19.05a1.77,1.77,0,1,1,1.78-1.77A1.78,1.78,0,0,1,33,19.05Z"/><path class="cls-1" d="M25.1,20.24a4.92,4.92,0,1,0,4.95,4.92A4.94,4.94,0,0,0,25.1,20.24Z"/><path class="cls-1" d="M25.18,0A25.19,25.19,0,1,0,50.37,25.18,25.19,25.19,0,0,0,25.18,0ZM39.86,31.25a10.64,10.64,0,0,1-.69,3.58,7.19,7.19,0,0,1-1.71,2.62,7.33,7.33,0,0,1-2.63,1.7,11.3,11.3,0,0,1-3.6.69c-1.59.07-2.09.08-6.13.08s-4.53,0-6.12-.08a11.24,11.24,0,0,1-3.6-.69A7.53,7.53,0,0,1,11,34.83a10.64,10.64,0,0,1-.69-3.58c-.08-1.58-.09-2.08-.09-6.09s0-4.51.09-6.08A10.71,10.71,0,0,1,11,15.49a7.55,7.55,0,0,1,4.34-4.31,10.72,10.72,0,0,1,3.6-.69c1.59-.07,2.09-.09,6.12-.09s4.54,0,6.13.09a10.77,10.77,0,0,1,3.6.69,7.55,7.55,0,0,1,4.34,4.31,10.71,10.71,0,0,1,.69,3.59c.07,1.57.09,2.07.09,6.08S39.93,29.67,39.86,31.25Z"/></g></g></svg>