<?xml version="1.0" encoding="utf-8"?><svg xmlns="http://www.w3.org/2000/svg" viewBox="0 0 49.99 49.99"><defs><style>.cls-1{fill:#fff;fill-rule:evenodd;}</style></defs><title>Ativo 6whats</title><g id="Camada_2" data-name="Camada 2"><g id="Objects"><path class="cls-1" d="M25.06,12.33A12.14,12.14,0,0,0,12.94,24.44a12,12,0,0,0,1.86,6.44l.28.46-1.22,4.47,4.58-1.2.45.26a12.12,12.12,0,0,0,6.16,1.69h0a12.11,12.11,0,0,0,8.56-20.68A12,12,0,0,0,25.06,12.33Zm7.13,17.31a3.8,3.8,0,0,1-2.46,1.74,5,5,0,0,1-2.3-.15,21.35,21.35,0,0,1-2.07-.77A16.21,16.21,0,0,1,19.14,25a7.15,7.15,0,0,1-1.49-3.77,4,4,0,0,1,1.28-3,1.31,1.31,0,0,1,1-.46h.69c.23,0,.53-.08.82.63s1,2.52,1.13,2.7a.68.68,0,0,1,0,.64,2.49,2.49,0,0,1-.37.6c-.18.22-.38.48-.54.64s-.38.38-.16.75a11.1,11.1,0,0,0,2,2.52A9.85,9.85,0,0,0,26.45,28c.36.19.58.16.79-.09s.91-1.06,1.15-1.42.49-.31.82-.19,2.13,1,2.49,1.19.61.27.7.42A3.07,3.07,0,0,1,32.19,29.64Z"/><path class="cls-1" d="M25,0A25,25,0,1,0,50,25,25,25,0,0,0,25,0Zm.07,39h0a14.41,14.41,0,0,1-7-1.78l-7.73,2,2.07-7.55A14.57,14.57,0,1,1,25.06,39Z"/></g></g></svg>