<?xml version="1.0" encoding="utf-8"?>
<!-- Generator: Adobe Illustrator 23.1.1, SVG Export Plug-In . SVG Version: 6.00 Build 0)  -->
<svg version="1.1" id="Layer_1" xmlns="http://www.w3.org/2000/svg" xmlns:xlink="http://www.w3.org/1999/xlink" x="0px" y="0px"
	 viewBox="0 0 566.56 564.81" style="enable-background:new 0 0 566.56 564.81;" xml:space="preserve">
<style type="text/css">
	.st0{clip-path:url(#SVGID_2_);}
	.st1{fill:#84989E;}
	.st2{fill:#74878A;}
	.st3{fill:#262424;}
	.st4{fill:#73B0A0;}
	.st5{fill:#E7CDC2;}
	.st6{fill:#25231F;}
	.st7{fill:#B7A976;}
	.st8{fill:#A84951;}
	.st9{fill:#933F4E;}
	.st10{fill:#727476;}
	.st11{fill:#FFFFFF;}
	.st12{fill:#FAF2F0;}
	.st13{fill:#843640;}
	.st14{fill:#4D4C48;}
	.st15{fill:#CEB8B0;}
	.st16{fill:#B5AB7C;}
	.st17{fill:#908864;}
	.st18{fill:none;stroke:#262424;stroke-miterlimit:10;}
	.st19{fill:#A1A1A1;}
	.st20{fill:#353535;}
	.st21{fill:#933F4D;}
	.st22{fill:#303030;}
	.st23{fill:#9A4150;}
	.st24{fill:none;}
</style>
<g>
	<defs>
		<circle id="SVGID_1_" cx="282.4" cy="282.4" r="263.37"/>
	</defs>
	<clipPath id="SVGID_2_">
		<use xlink:href="#SVGID_1_"  style="overflow:visible;"/>
	</clipPath>
	<g class="st0">
		<g>
			<path class="st5" d="M543.39,536.21c1.47-10.23-14.78-7.01-36.67-5.11c-21.89,1.89-32.82,0.33-34.29,10.56
				c-1.47,10.23,8.99,16.48,30.88,14.59C525.19,554.35,541.92,546.44,543.39,536.21z"/>
			<path class="st3" d="M495.89,557.69c-10.25,0-17.64-2.15-21.6-6.34c-2.48-2.62-3.5-6.03-2.95-9.85
				c1.33-9.26,9.53-9.78,24.43-10.72c3.26-0.21,6.87-0.44,10.85-0.78c3.04-0.26,5.96-0.55,8.75-0.83
				c13.86-1.36,23.86-2.35,27.65,1.61c1.31,1.37,1.8,3.25,1.46,5.59c-1.51,10.56-18.02,18.98-41.08,20.98
				C500.75,557.57,498.24,557.69,495.89,557.69z M532.21,530.18c-4.5,0-10.22,0.56-16.62,1.19c-2.79,0.28-5.73,0.57-8.78,0.83
				c-3.99,0.34-7.63,0.58-10.9,0.78c-14.63,0.93-21.31,1.35-22.38,8.83c-0.45,3.17,0.34,5.87,2.37,8.02
				c4.32,4.57,14.01,6.46,27.31,5.31c21.67-1.87,37.74-9.72,39.08-19.08c0.23-1.65-0.05-2.88-0.88-3.74
				C539.9,530.73,536.66,530.18,532.21,530.18z"/>
		</g>
		<g>
			<path class="st5" d="M493.17,607c0,0,12.3,8.44,21.08,4.6c8.78-3.84,29.22-34.94,34.5-34.94s12.6-3.91,11.72-9.28
				c-0.88-5.37-0.54-7.96-9.32-5.66c0,0,14.93-13.05-1.76-15.35c0,0,7.91-12.28-4.39-12.28c0,0,2.64-15.35-7.03-11.51
				c-9.66,3.84-47.33,15.74-47.33,15.74l-9.52,57.13L493.17,607z"/>
			<path class="st3" d="M509.09,613.72c-7.98,0-16.13-5.51-16.55-5.8l-0.14-0.11l-12.47-11.94l9.73-58.38l0.65-0.2
				c0.38-0.12,37.74-11.94,47.26-15.72c2.6-1.03,4.72-0.92,6.28,0.35c3.02,2.45,2.72,8.44,2.42,11.13c3,0.22,5.03,1.27,6.05,3.13
				c1.64,3-0.06,7.21-1.18,9.38c3.97,0.81,6.34,2.42,7.05,4.81c0.98,3.29-1.52,7.06-3.67,9.54c2.12-0.28,3.52-0.07,4.55,0.61
				c1.64,1.08,1.94,3.06,2.32,5.56l0.18,1.14c0.32,2.01-0.28,3.99-1.77,5.74c-2.38,2.8-7.03,4.83-11.05,4.83
				c-2.07,0-9.12,8.47-14.77,15.27c-7.17,8.62-14.58,17.53-19.28,19.58C512.91,613.4,511.01,613.72,509.09,613.72z M493.87,606.13
				c0.99,0.66,12.14,7.85,19.94,4.46c4.21-1.84,11.78-10.94,18.46-18.97c8.53-10.26,13.51-16.07,16.48-16.07
				c3.37,0,7.4-1.74,9.36-4.05c1.06-1.25,1.49-2.58,1.26-3.94l-0.18-1.17c-0.31-2.04-0.53-3.51-1.35-4.04
				c-0.92-0.61-2.96-0.46-6.41,0.44l-4.55,1.19l3.54-3.1c1.89-1.66,6.61-6.67,5.64-9.9c-0.66-2.22-4.08-3.13-6.82-3.51l-1.72-0.24
				l0.94-1.46c0.99-1.54,3.26-6.08,1.91-8.55c-0.73-1.34-2.54-2.01-5.37-2.01h-1.31l0.22-1.3c0.38-2.22,0.86-8.41-1.46-10.28
				c-0.89-0.73-2.25-0.74-4.07-0.01c-8.89,3.53-41.72,13.97-46.75,15.56l-9.31,55.88L493.87,606.13z"/>
		</g>
		<g>
			<path class="st6" d="M193.8,468.41l32.15-0.99c0,0,28.01,14.43,60.65,3.98l46.32,7.13c0,0,10.74,388.24,3.91,498.07
				C332.01,1053.99,42.87,1001,42.87,1001l9.77-126.47l-4.88-378.43L193.8,468.41z"/>
			<path class="st3" d="M222.42,1020.4c-17.93,0-37.89-0.84-59.86-2.53c-62.77-4.83-119.43-15.13-120-15.24l-1.47-0.27l9.88-127.96
				l-4.91-379.68l1.37-0.26l146.3-27.72l32.58-1.01l0.38,0.2c0.28,0.15,27.82,13.98,59.38,3.87l0.37-0.12l48.08,7.4l0.04,1.39
				c0.11,3.88,10.66,389.57,3.9,498.22c-0.57,9.13-4.94,16.95-13,23.25C308.07,1013.56,273.51,1020.4,222.42,1020.4z M44.64,999.62
				c19.6,3.45,226.44,38.63,278.8-2.31c7.28-5.69,11.22-12.7,11.73-20.84c6.54-105.21-3.18-470.9-3.87-496.53l-44.57-6.86
				c-31.04,9.78-57.48-2.22-61.15-4l-31.6,0.98L49.43,497.47l4.87,377.04L44.64,999.62z"/>
		</g>
		<path class="st5" d="M230.92,402.78c0,0,6.96,31.82-4.97,64.63c0,0,30.82,17.9,60.65,3.98l5.97-49.72l-58.67-55.68L230.92,402.78z
			"/>
		<g>
			<path class="st5" d="M329.54,517.58l10.74,340.47c0,0,16.88,8.43,30.7-1.69s-3.07-337.1-3.07-337.1S344.89,531.06,329.54,517.58z
				"/>
			<path class="st3" d="M355.19,863.04c-8.48,0-15.19-3.28-15.65-3.5l-0.89-0.44l-0.03-0.99L327.76,513.8l2.88,2.53
				c14.31,12.56,36.3,1.57,36.52,1.45l2.29-1.17l0.13,2.56c0.04,0.82,4.25,82.72,6.72,164.79c5.02,166.9-1.77,171.87-4.32,173.74
				C366.42,861.77,360.46,863.04,355.19,863.04z M341.92,856.96c3.55,1.47,17.01,6.18,28.09-1.93c9.46-7.2,2.84-207.14-3.63-333.23
				c-5.94,2.49-22.13,7.88-35.06-0.75L341.92,856.96z"/>
		</g>
		<g>
			<path class="st8" d="M291.9,503.91c0,0,15.63-41.02,37.11-33.2s48.83,48.83,48.83,48.83l13.18,69.34c0,0,19.7,6.78,2.93,37.36
				c-16.77,30.57,5.86,53.47,5.86,53.47s-24.29,42.99-6.53,45.91s-26.43,60.3-26.43,60.3l-30.76,3.66c0,0,10.5,138.19,12.45,165.53
				c1.95,27.34-29.3,41.02-46.88,35.16S254.79,959,262.61,880.88c7.81-78.13,15.63-126.96,9.77-150.4
				c-5.86-23.44,7.81-82.03,7.81-109.38C280.18,593.75,291.9,503.91,291.9,503.91z"/>
			<path class="st3" d="M310.57,993.26c-3.34,0-6.53-0.46-9.42-1.43c-11.65-3.88-48.97-23.37-40.2-111.12
				c1.78-17.75,3.55-33.99,5.17-48.77c5.48-50.12,9.1-83.24,4.64-101.06c-3.65-14.61-0.01-41.59,3.51-67.69
				c2.19-16.22,4.25-31.54,4.25-42.1c0-27.14,11.61-116.51,11.73-117.41l0.1-0.38c0.66-1.74,16.47-42.46,39.23-34.18
				c21.75,7.91,48.52,47.78,49.65,49.47l0.25,0.61l13.02,68.47c1.92,0.91,6.3,3.56,8.54,9.36c2.97,7.68,1.08,17.77-5.61,29.98
				c-16,29.15,5.36,51.28,5.58,51.5l0.88,0.89l-0.62,1.09c-4.71,8.34-16.04,31.89-11.93,40.47c0.8,1.67,2.18,2.64,4.23,2.98
				c3.11,0.51,4.46,2.37,5.04,3.84c4.97,12.6-26.79,54.39-30.42,59.11l-0.42,0.55l-29.87,3.56c1.17,15.47,10.51,138.5,12.33,163.95
				c0.82,11.44-3.95,21.78-13.41,29.13C329.23,989.98,319.42,993.26,310.57,993.26z M293.53,504.32
				c-0.62,4.78-11.68,90.47-11.68,116.78c0,10.78-2.08,26.21-4.28,42.54c-3.32,24.58-7.08,52.45-3.58,66.44
				c4.6,18.4,0.95,51.75-4.57,102.23c-1.62,14.76-3.39,30.99-5.16,48.73c-8.52,85.3,26.88,103.95,37.93,107.64
				c9.62,3.21,22.99,0.24,32.56-7.19c8.56-6.64,12.87-15.97,12.13-26.27c-1.93-27.03-12.34-164.14-12.45-165.53l-0.12-1.59
				l31.65-3.77c13.79-18,32.75-47.17,29.54-55.31c-0.27-0.68-0.8-1.5-2.48-1.78c-3.15-0.52-5.41-2.14-6.69-4.83
				c-5.18-10.81,8.39-36.85,11.46-42.49c-4.04-4.72-20.54-26.69-5.29-54.5c6.09-11.11,7.98-20.48,5.46-27.11
				c-2.27-5.97-7.27-7.8-7.48-7.87l-0.9-0.32l-0.19-0.94l-13.12-69c-2.43-3.59-28.01-40.71-47.83-47.91
				C309.44,465.36,294.66,501.46,293.53,504.32z"/>
		</g>
		<g>
			<g>
				<path class="st10" d="M564.1,615.72l-9.44,6.05c-2.44,1.56-5.68,0.94-7.36-1.43l-60.26-84.81L514,518.25l51.87,90.18
					C567.32,610.95,566.54,614.16,564.1,615.72z"/>
				<path class="st3" d="M551.72,624.3c-2.22,0-4.41-1.04-5.79-2.99l-61.26-86.24l29.9-19.16l52.74,91.69
					c1.89,3.29,0.87,7.47-2.33,9.52l-9.44,6.05C554.37,623.93,553.04,624.3,551.72,624.3z M489.4,535.99l59.25,83.39
					c1.17,1.64,3.41,2.08,5.11,0.99l9.44-6.05c1.7-1.09,2.24-3.31,1.23-5.06l-51-88.67L489.4,535.99z"/>
			</g>
			<path class="st3" d="M513.56,520.72l-24.93,15.98c-2,1.28-4.66,0.7-5.94-1.3l-0.05-0.07c-1.28-2-0.7-4.66,1.3-5.94l24.93-15.98
				c2-1.28,4.66-0.7,5.94,1.3l0.05,0.07C516.14,516.78,515.56,519.44,513.56,520.72z"/>
			<path class="st3" d="M466.39,474.87l-0.53,0.34c-14.44,9.25-18.65,28.46-9.39,42.91l0.34,0.53c5.66,8.83,15.04,13.83,24.77,14.27
				l30.67-19.65c3.67-9.03,3.04-19.64-2.62-28.47l-0.34-0.53C500.04,469.83,480.83,465.62,466.39,474.87z"/>
			<g>
				<path class="st11" d="M507.22,492.03c-0.47,0.3-1.09,0.16-1.4-0.31c-7.32-11.43-22.58-14.77-34.01-7.45
					c-0.47,0.3-1.09,0.16-1.4-0.31s-0.16-1.09,0.31-1.4c12.37-7.92,28.87-4.31,36.8,8.06C507.83,491.1,507.69,491.73,507.22,492.03z
					"/>
			</g>
			<g>
				<path class="st3" d="M507.37,536.95l-0.05,0.03c-1.28,0.82-1.65,2.52-0.83,3.8l4.48,6.99c0.82,1.28,2.52,1.65,3.8,0.83
					l0.05-0.03c1.28-0.82,1.65-2.52,0.83-3.8l-4.48-6.99C510.35,536.5,508.65,536.13,507.37,536.95z"/>
				<path class="st3" d="M507.37,536.95l-0.05,0.03c-1.28,0.82-1.65,2.52-0.83,3.8l4.48,6.99c0.82,1.28,2.52,1.65,3.8,0.83
					l0.05-0.03c1.28-0.82,1.65-2.52,0.83-3.8l-4.48-6.99C510.35,536.5,508.65,536.13,507.37,536.95z"/>
				<path class="st3" d="M512.66,541.76l-2.24-3.5c-0.55-0.86-1.71-1.12-2.57-0.56l-0.05,0.03c-0.86,0.55-1.12,1.71-0.56,2.57
					l2.24,3.5L512.66,541.76z"/>
			</g>
		</g>
		<g>
			<g>
				<path class="st5" d="M564.99,561.43c-2.32-6.11-12.51,2.12-27.04,11.87c-14.53,9.76-22.6,13.28-20.29,19.38
					c2.32,6.11,11.59,5.31,26.11-4.45C558.31,578.48,567.31,567.54,564.99,561.43z"/>
				<path class="st3" d="M524.08,597.69c-1.12,0-2.14-0.15-3.07-0.44c-2.09-0.66-3.6-2.11-4.38-4.17
					c-2.21-5.83,3.35-9.43,13.44-15.94c2.19-1.41,4.62-2.98,7.26-4.76c2.01-1.35,3.93-2.67,5.77-3.92
					c9.88-6.78,16.39-11.26,20.34-10.04c1.2,0.38,2.07,1.26,2.59,2.61v0c2.49,6.59-5.99,17.62-21.63,28.12
					C536.01,594.79,529.08,597.69,524.08,597.69z M562,560.43c-3.27,0-9.98,4.6-17.65,9.85c-1.84,1.26-3.77,2.58-5.78,3.94
					c-2.66,1.78-5.09,3.36-7.3,4.78c-10.07,6.5-14.09,9.29-12.57,13.29c0.55,1.45,1.53,2.38,2.98,2.84
					c4.24,1.36,12.06-1.49,21.48-7.82c14.29-9.6,22.84-20.08,20.8-25.5l0,0c-0.36-0.93-0.84-1.18-1.18-1.28
					C562.54,560.47,562.28,560.43,562,560.43z"/>
			</g>
		</g>
		<g>
			<g>
				<path class="st5" d="M559.49,548.35c-2.55-6.77-14.14,2.59-30.63,13.74c-16.49,11.15-25.64,15.22-23.09,21.99
					c2.55,6.77,13.03,5.71,29.52-5.44C551.78,567.5,562.04,555.12,559.49,548.35z"/>
				<path class="st3" d="M512.76,589.42c-1.22,0-2.33-0.16-3.33-0.48c-2.24-0.71-3.87-2.26-4.7-4.47
					c-2.4-6.37,3.87-10.45,15.27-17.87c2.49-1.62,5.24-3.41,8.24-5.43c2.28-1.54,4.47-3.05,6.55-4.49
					c11.24-7.75,18.65-12.86,22.97-11.51c1.29,0.4,2.21,1.34,2.76,2.79c2.73,7.24-6.93,19.65-24.62,31.6
					C526.28,586.07,518.38,589.42,512.76,589.42z M556.23,547.17c-3.73,0-11.4,5.29-20.18,11.34c-2.09,1.44-4.28,2.95-6.58,4.5
					c-3.01,2.04-5.77,3.83-8.27,5.46c-11.51,7.48-16.11,10.7-14.41,15.22c0.61,1.6,1.68,2.63,3.3,3.14
					c4.77,1.54,13.74-1.79,24.56-9.1c16.29-11.01,26.07-22.93,23.78-28.98c-0.39-1.05-0.96-1.33-1.35-1.46
					C556.84,547.21,556.55,547.17,556.23,547.17z"/>
			</g>
		</g>
		<g>
			<g>
				<path class="st5" d="M547.72,524.66c-2.74-6.2-14.76,2.19-31.88,12.16c-17.13,9.96-26.65,13.57-23.91,19.77
					c2.74,6.2,13.67,5.36,30.8-4.61C539.85,542.01,550.45,530.86,547.72,524.66z"/>
				<path class="st3" d="M499.37,561.61c-1.44,0-2.73-0.18-3.86-0.55c-2.19-0.71-3.74-2.07-4.61-4.04
					c-2.65-5.99,3.91-9.66,15.81-16.32c2.59-1.44,5.44-3.05,8.56-4.86c2.38-1.38,4.66-2.74,6.83-4.02
					c11.73-6.97,19.5-11.56,23.9-10.15c1.24,0.4,2.16,1.25,2.72,2.53l0,0c2.98,6.73-7.01,18-25.45,28.73
					C513.49,558.63,505.21,561.61,499.37,561.61z M544.23,523.64c-3.98,0-11.93,4.72-21,10.1c-2.17,1.29-4.46,2.65-6.84,4.03
					c-3.13,1.82-6,3.42-8.59,4.88c-11.87,6.64-16.62,9.5-14.86,13.49c0.61,1.39,1.68,2.31,3.27,2.82
					c5.03,1.64,14.49-1.26,25.96-7.94c16.59-9.65,26.91-20.55,24.54-25.91l0,0c-0.31-0.7-0.75-1.11-1.37-1.31
					C545.01,523.69,544.64,523.64,544.23,523.64z"/>
			</g>
			
				<ellipse transform="matrix(0.9254 -0.379 0.379 0.9254 -172.5104 230.9222)" class="st12" cx="500.32" cy="553.66" rx="5.34" ry="4.25"/>
		</g>
		<g>
			<path class="st5" d="M554.04,534.57c-2.79-7.22-15.61,2.87-33.85,14.9c-18.24,12.03-28.35,16.45-25.56,23.68
				c2.79,7.22,14.35,6.02,32.59-6.02C545.45,555.1,556.83,541.79,554.04,534.57z"/>
			<path class="st3" d="M502.25,578.74c-1.36,0-2.59-0.18-3.69-0.53c-2.36-0.75-4.08-2.37-4.97-4.66
				c-2.61-6.75,4.31-11.15,16.87-19.13c2.75-1.75,5.8-3.68,9.11-5.86c2.53-1.67,4.95-3.3,7.26-4.85
				c12.44-8.37,20.67-13.9,25.33-12.42c1.35,0.42,2.33,1.4,2.91,2.9c2.97,7.7-7.72,21-27.24,33.88
				C517.15,575.11,508.42,578.74,502.25,578.74z M550.5,533.25c-4.16,0-12.69,5.73-22.43,12.29c-2.31,1.55-4.74,3.19-7.27,4.86
				c-3.33,2.19-6.38,4.14-9.14,5.89c-12.77,8.11-17.88,11.6-15.99,16.46c0.65,1.69,1.82,2.79,3.57,3.35
				c5.34,1.7,15.29-1.91,27.37-9.89c18.04-11.91,28.9-24.75,26.4-31.24c-0.44-1.13-1.07-1.44-1.5-1.58
				C551.2,533.3,550.87,533.25,550.5,533.25z"/>
		</g>
		
			<ellipse transform="matrix(0.7983 -0.6022 0.6022 0.7983 -241.4455 418.0904)" class="st12" cx="503.54" cy="569.56" rx="5.86" ry="4.79"/>
		<g>
			<path class="st8" d="M217.68,538.09c0,0,7.81-43.95-18.56-42.97s-23.44,18.56-23.44,18.56s-20.51-56.64,16.6-57.62
				s34.18,9.77,34.18,9.77s-34.18,5.86-8.79,17.58S224.52,530.28,217.68,538.09z"/>
			<path class="st3" d="M215.9,541.82l0.7-3.92c0.05-0.26,4.44-25.8-5.09-36.76c-3-3.45-7.11-5.11-12.33-4.91
				c-9.25,0.34-15.78,2.77-19.41,7.22c-3.82,4.68-2.99,9.99-2.98,10.04l-2.14,0.56c-0.5-1.37-12.05-33.82-0.92-50.13
				c3.91-5.73,10.15-8.75,18.54-8.97c23.24-0.58,31.34,3.39,34.05,6.84c1.74,2.21,1.28,4.11,1.23,4.32l-0.19,0.68l-0.7,0.12
				c-6.4,1.1-16.74,4.24-17.23,7.98c-0.28,2.11,2.82,4.77,8.72,7.5c7.1,3.28,11.47,8.58,13,15.76c3.39,15.9-8.24,35.65-12.63,40.67
				L215.9,541.82z M199.98,493.99c5.47,0,9.9,1.91,13.19,5.69c7.84,9.01,7.07,26.24,6.19,34.29c5.14-7.79,12.19-23.28,9.62-35.37
				c-1.38-6.46-5.33-11.24-11.76-14.21c-7.16-3.3-10.43-6.51-9.99-9.8c0.78-5.95,14.23-8.96,18.16-9.71
				c-0.07-0.45-0.29-1.1-0.91-1.84c-2.03-2.46-8.89-6.53-32.16-5.89c-7.64,0.2-13.28,2.89-16.76,8
				c-7.89,11.56-3.31,32.77-0.51,42.72c0.5-1.83,1.4-3.87,3-5.84c4.05-4.96,11.13-7.67,21.04-8.03
				C199.39,494,199.69,493.99,199.98,493.99z"/>
		</g>
		<g>
			<path class="st8" d="M289.46,545.05c0,0-6-42.99,19.72-42.04c25.72,0.95,22.86,18.1,22.86,18.1s20.01-55.25-16.19-56.2
				s-28.95,10.56-28.95,10.56s28.95,4.68,4.18,16.11C266.31,503.01,282.79,537.43,289.46,545.05z"/>
			<path class="st3" d="M291.07,548.57l-2.45-2.79c-4.62-5.28-14.41-24.02-11.21-39.05c1.57-7.4,6.02-12.84,13.2-16.15
				c8.52-3.94,9.52-6.55,9.36-7.75c-0.42-3.06-8.35-5.46-13.25-6.26l-0.49-0.08l-0.27-0.42c-0.07-0.11-1.67-2.72-0.02-5.6
				c2.77-4.87,12.83-7.11,29.94-6.66c8.2,0.22,14.29,3.16,18.11,8.76c10.86,15.92-0.41,47.59-0.9,48.93l-2.14-0.56
				c0.01-0.05,0.8-5.28-2.92-9.81c-3.54-4.31-9.89-6.67-18.88-7c-5.15-0.22-9.19,1.44-12.26,4.83c-9.71,10.74-6.36,35.69-6.32,35.94
				L291.07,548.57z M287.65,474.47c2.9,0.52,13.81,2.84,14.52,8.05c0.45,3.27-3.03,6.56-10.63,10.07
				c-6.51,3.01-10.54,7.92-11.96,14.6c-2.57,12.05,3.71,26.66,8.37,33.93c-0.57-7.81-0.73-24.78,7.28-33.65
				c3.53-3.91,8.31-5.82,13.99-5.57c9.68,0.36,16.59,3,20.55,7.85c1.54,1.88,2.41,3.85,2.9,5.61c2.73-9.73,7.14-30.32-0.52-41.55
				c-3.4-4.97-8.89-7.6-16.33-7.79c-21.3-0.58-26.64,3.23-27.96,5.54C287.17,472.76,287.42,473.89,287.65,474.47z"/>
		</g>
		<g>
			<path class="st13" d="M216.95,513.92c0,0-31.25,54.69-31.25,107.43c0,52.74-12.7,117.19-22.46,132.82
				c-9.77,15.63,0.98,122.08,0.98,122.08s10.74,99.61-5.86,123.05s28.32-10.74,21.49-50.78C173,908.46,173,770.76,173,770.76
				s25.39-111.33,26.37-149.42c0.98-38.09,20.51-82.03,20.51-82.03L216.95,513.92z"/>
			<path class="st3" d="M155.21,1008.05c-0.68,0-1.07-0.32-1.28-0.57c-0.73-0.88-0.88-2.62,3.52-8.83
				c16.17-22.83,5.77-121.3,5.66-122.29c-0.44-4.37-10.67-107.02-0.81-122.78c9.83-15.72,22.29-81.13,22.29-132.23
				c0-52.42,31.08-107.43,31.4-107.98l1.68-2.93l3.35,29.05l-0.12,0.28c-0.19,0.44-19.45,44.19-20.41,81.61
				c-0.97,37.76-26.14,148.52-26.4,149.64c0.03,1.13,0.11,137.82,6.85,177.31c5.09,29.79-18.25,56.58-24.36,59.39
				C156.03,1007.96,155.58,1008.05,155.21,1008.05z M216.25,517.54c-6.45,12.24-29.44,59.02-29.44,103.81
				c0,52.35-12.44,117.11-22.63,133.4c-9.46,15.13,1.03,120.32,1.14,121.38c0.44,4.08,10.59,100.29-6.06,123.8
				c-2.21,3.12-3.03,4.79-3.33,5.63c1.43-0.79,4.47-3.33,8.16-7.95c4.45-5.56,18.65-25.52,14.66-48.92
				c-6.77-39.67-6.85-176.55-6.85-177.93c0.28-1.36,25.41-111.91,26.37-149.45c0.93-36.29,18.82-78.34,20.48-82.18L216.25,517.54z"
				/>
		</g>
		<path class="st14" d="M218.05,469.97c0,0,42.48,26.37,66.65,5.86l-6.59-2.2c0,0-39.55,5.86-54.93-7.32L218.05,469.97z"/>
		<path class="st15" d="M241.12,404.05c0,0,9.52,49.07-5.86,66.65l-8.79-4.88c0,0,10.5-21.08,4.15-74.38
			C230.62,391.43,241.12,379.15,241.12,404.05z"/>
		<g>
			<path class="st3" d="M262.14,477.75c-20.27,0-36.52-9.25-36.75-9.38l-0.8-0.47l0.32-0.87c11.69-32.14,5-63.7,4.93-64.02
				l-0.04-0.16l0.02-0.16l3.17-39.1l60.75,57.66l-0.07,0.55l-6.04,50.33l-0.56,0.26C278.63,476.33,270.08,477.75,262.14,477.75z
				 M227.31,466.89c4.99,2.61,32.12,15.58,58.26,3.75l5.83-48.55l-56.58-53.7l-2.79,34.32
				C232.55,405.25,238.34,435.69,227.31,466.89z"/>
		</g>
		<path class="st5" d="M341.89,188.22c0,0,22.37-5.47,30.82,18.4c8.45,23.86,11.93,59.16,10.94,65.13s-13.92,59.66-20.88,103.41
			c-6.96,43.75-4.46,43.54-4.46,43.54s-6.4,16.38-30.76,15.38c-24.36-0.99-31.5,6.59-52.74-14.65
			c-20.8-20.8-36.83-13.45-37.32-56.71c0,0-33.48-131.7-6.14-145.37c27.34-13.67,83.06-53.21,83.06-53.21L341.89,188.22z"/>
		<g>
			<path class="st3" d="M333.45,354.01c-6.82,0-15.46-3.29-17.52-4.72l1.26-1.82c2.82,1.96,15.84,6.25,20.94,3.4
				c1.44-0.8,2.09-2.14,1.98-4.1c-0.46-8.63-20.64-38.16-20.84-38.45l1.83-1.25c0.85,1.24,20.73,30.34,21.23,39.59
				c0.19,3.55-1.59,5.31-3.12,6.16C337.67,353.67,335.65,354.01,333.45,354.01z"/>
		</g>
		<g>
			<polygon class="st7" points="302.12,365.81 295.66,385.18 300.63,383.68 306.1,385.18 311.07,382.69 316.04,384.68 322.01,381.7 
				326.98,383.19 333.44,381.7 336.92,382.69 340.9,379.71 344.88,380.7 346.37,377.72 350.35,379.21 341.4,363.8 324,366.78 			"/>
			<path class="st3" d="M295.66,386.28c-0.29,0-0.58-0.12-0.8-0.34c-0.29-0.3-0.39-0.73-0.26-1.12l6.46-19.36
				c0.16-0.47,0.71-0.84,1.1-0.76l21.87,0.97l17.17-2.97c0.44-0.08,0.91,0.13,1.14,0.54l8.95,15.41c0.24,0.4,0.19,0.91-0.11,1.27
				c-0.3,0.36-0.8,0.49-1.24,0.32l-3.05-1.14l-1.04,2.09c-0.23,0.47-0.76,0.69-1.26,0.58l-3.47-0.87l-3.55,2.67
				c-0.28,0.21-0.64,0.28-0.97,0.18l-3.21-0.92l-6.18,1.43c-0.19,0.05-0.39,0.04-0.57-0.02l-4.55-1.36l-5.57,2.79
				c-0.29,0.14-0.62,0.16-0.91,0.04l-4.51-1.8l-4.53,2.26c-0.24,0.12-0.52,0.15-0.78,0.08l-5.16-1.41l-4.67,1.4
				C295.87,386.27,295.77,386.28,295.66,386.28z M300.63,382.58c0.1,0,0.19,0.01,0.29,0.04l5.06,1.38l4.6-2.3
				c0.28-0.15,0.61-0.16,0.91-0.04l4.51,1.8l5.52-2.76c0.26-0.13,0.55-0.15,0.82-0.07l4.69,1.41l6.17-1.43
				c0.19-0.04,0.38-0.03,0.55,0.02l2.95,0.84l3.53-2.65c0.27-0.2,0.62-0.26,0.94-0.19l3.11,0.78l1.09-2.19
				c0.25-0.51,0.85-0.74,1.38-0.54l1.07,0.4l-7-12.06l-16.65,2.85l-21.27-0.92l-5.52,16.54l2.93-0.87
				C300.41,382.59,300.52,382.58,300.63,382.58z"/>
		</g>
		<g>
			<path class="st3" d="M306.66,437.23c-11.91,0-21.41-2.57-31.33-19.43c-5.61-9.54-12.35-13.28-18.86-16.9
				c-10.61-5.89-19.76-10.98-20.08-38.16l2.22-0.03c0.3,25.89,8.93,30.69,18.94,36.24c6.46,3.59,13.78,7.65,19.7,17.72
				c11.31,19.23,21.59,18.78,37.12,18.11c4.35-0.19,9.29-0.4,14.66-0.18c0.49,0.02,0.97,0.03,1.43,0.03
				c19.7,0,25.47-17.1,26.56-21.18c-0.55-1.88-0.02-9.01,4.67-38.47c5.18-32.54,13.57-70.18,18.07-90.41
				c1.49-6.68,2.56-11.51,2.81-13.01c0.9-5.39-2.43-40.71-10.88-64.58c-8.01-22.6-28.64-17.9-29.52-17.69l-0.52-2.15
				c0.24-0.06,23.45-5.43,32.14,19.1c8.3,23.45,12.09,59.04,10.99,65.68c-0.26,1.56-1.29,6.16-2.84,13.13
				c-4.5,20.2-12.87,57.79-18.04,90.27c-5.11,32.11-5.01,36.69-4.86,37.33l-0.53,0.13l0.9,0.28c-0.05,0.25-5.57,24.74-30.46,23.75
				c-5.31-0.22-10.17-0.01-14.48,0.18C311.73,437.11,309.14,437.23,306.66,437.23z M358.07,412.01c-0.43,0-0.72,0.26-0.79,0.4
				l0.74,0.23l0.19-0.62C358.16,412.02,358.11,412.01,358.07,412.01z"/>
		</g>
		<g>
			<path class="st16" d="M236.48,339.43c0,0-2.83,73.31-10.99,51.27c0,0-66.26-94.04-60.1-156.74c1.08-11.02,15.09-75.41,29.3-86.43
				c21.93-17,67.39-26.37,95.22-33.69c23.05-6.07,70.09,20.83,92.29,41.02c32.23,29.3,0,121.59,0,121.59l-5.86-52
				c0,0-25.3-55.41-57.13-29.3s-39.07,11.3-36.62,15.38c2.45,4.08-27.52-4.58-23.44,4.39c4.08,8.98-3.24,6.66-7.32,13.18
				c-4.08,6.53-8.96,16.26-7.32,21.97c1.63,5.71,4.39,26.37,4.39,26.37l2.93,55.67l-17.58-16.11L236.48,339.43z"/>
			<path class="st3" d="M228.4,395.94c-1.86,0-3.05-2.47-3.9-4.72c-1.3-1.86-17.28-24.95-32.36-54.88
				c-14.48-28.73-31.06-69.84-27.86-102.5c1.07-10.89,15.06-75.83,29.72-87.2c18.84-14.61,53.93-23.4,82.13-30.46
				c4.79-1.2,9.34-2.34,13.49-3.43c23.03-6.08,69.87,19.95,93.32,41.27c13.66,12.42,17.84,36.9,12.44,72.77
				c-4,26.53-12.05,49.77-12.13,50.01l-1.61,4.59l-6.38-56.66c-1.12-2.36-14.81-30.53-33.74-34.92c-7.29-1.68-14.56,0.39-21.61,6.17
				c-20.02,16.42-30.87,17.29-36.22,15.6c-0.03,0.07-0.06,0.13-0.09,0.17c-0.86,1.36-3.39,1.17-9.52,0.57
				c-4.77-0.46-12.76-1.25-14.06,0.57c-0.23,0.32-0.18,0.84,0.14,1.54c2.76,6.07,0.76,7.88-2.61,9.94c-1.59,0.98-3.4,2.08-4.79,4.29
				c-2.73,4.36-8.89,15.15-7.2,21.08c1.64,5.72,4.32,25.68,4.43,26.53l3.08,58.46l-17.45-16l1.97,20.64l0,0.08
				c-0.64,16.65-2.79,55.48-8.84,56.44C228.63,395.93,228.52,395.94,228.4,395.94z M297.18,114.09c-2.53,0-4.88,0.26-6.99,0.82
				c-4.16,1.09-8.71,2.23-13.51,3.44c-26.52,6.64-62.84,15.74-81.31,30.06c-13.9,10.78-27.86,75.31-28.87,85.66
				c-6.05,61.58,59.24,155.06,59.9,156l0.13,0.25c1.17,3.15,1.91,3.41,1.92,3.41c2.99-1.13,5.94-29.03,6.92-54.27l-2.5-26.24
				l17.71,16.23l-2.79-52.96c-0.02-0.12-2.76-20.55-4.36-26.12c-1.87-6.54,3.87-17.14,7.45-22.87c1.66-2.65,3.79-3.96,5.51-5.01
				c2.68-1.64,3.9-2.38,1.75-7.13c-0.84-1.84-0.42-3.05,0.07-3.75c1.89-2.66,7.86-2.3,16.08-1.49c2.43,0.24,5.61,0.56,7.01,0.41
				c-0.23-0.39-0.49-0.99,0.04-1.55c0.61-0.63,1.35-0.24,1.59-0.11c3.23,1.73,13.16,3.77,35.57-14.61
				c7.61-6.24,15.52-8.47,23.52-6.61c20.73,4.8,34.74,35.02,35.33,36.31l0.09,0.34l5.29,46.9c6.01-19.34,25.84-90.89-1.27-115.54
				C361.09,137.16,320.94,114.09,297.18,114.09z"/>
		</g>
		<path class="st17" d="M176.66,240.71c1.08-11.02,7.77-78.34,21.97-89.36c21.93-17,65.92-27.83,93.75-35.16
			c10.08-2.65,39.12,4.5,54.29,11.14c-20.34-11.29-42.39-19.29-56.04-15.7c-27.83,7.32-73.29,16.69-95.22,33.69
			c-14.21,11.02-28.22,75.41-29.3,86.43c-6.16,62.71,60.1,156.74,60.1,156.74c2.99,8.07,5.26,3.33,6.94-5.9
			C215.22,354.12,171.95,288.71,176.66,240.71z"/>
		<g>
			<path class="st7" d="M368.73,336.87c0,0,1.34,11.68,3.95,11.25c1.63-0.27,1.09,10.41,3.95,14.28l-2.96,2.16l2.47,6.49l-3.46,0.87
				l1.48,4.33l-1.48,4.33l0.99,6.49l-2.47-1.3l1.48,7.79l-2.96,0.43l0.99,10.82l-2.47-1.3l1.48,7.79l-2.47,0.43l0.49,6.06
				l-2.47,0.87l0.49,6.06l-5.92,2.6v3.89l-3.95,0.87l-1.97,5.63l-5.43-0.87l-5.43,3.46l-4.44-0.43l-7.9,3.46l-5.43-0.43l-2.47,2.16
				l-6.91-0.87l-3.46,0.87l-5.92-3.89l-7.4,0.43l-3.95-3.03l-7.4-0.87c0,0-3.95-4.76-5.92-4.76s-4.44,0.43-5.43-0.87
				c-0.99-1.3-1.97-4.33-3.46-4.76c-1.48-0.43-8.39-2.16-8.39-2.16l-2.47-6.92l-8.89-4.33l-1.48-4.33l-6.91-5.19l-2.47-5.19
				l-7.9-3.89v-9.95l-6.42-5.63l0.49-13.42l3.46-8.66l4.44-18.18l2.96,16.88l2.47,0.43l-0.49,4.76l5.92,1.3l0.99,9.09l6.42,0.43
				l1.48,5.63c0,0,5.43,0,5.43,2.16s2.96,9.95,2.96,9.95l6.42,1.73l1.48,10.82l6.91,4.76c0,0,2.47,6.49,4.44,6.92
				c1.97,0.43,5.43-0.43,6.42,0.87c0.99,1.3,0.99,4.33,4.44,5.19s6.91,3.46,8.39,3.46s5.43-1.3,5.43-1.3l4.94-4.33l2.47-4.33
				l0.99-5.63l6.42-2.57l1.97,0.41l8.39,0.87l0.99,3.03c0,0,3.46-0.43,3.46,0.87c0,1.3,2.96,3.46,2.96,3.46l2.96,1.73
				c0,0,4.44,2.6,4.44,0.87c0-1.73,1.48-7.36,1.48-7.36s3.95,0.43,3.95-3.03c0-3.46-0.49-7.79,0.49-10.82
				c0.99-3.03,2.96-7.36,2.96-7.36s-1.48-5.63,0.49-8.66c1.97-3.03,2.47-12.12,2.47-13.42c0-1.3,2.96-8.66,2.96-8.66v-6.49
				L368.73,336.87z"/>
			<path class="st3" d="M312.45,446.17c-0.22,0-0.42-0.06-0.61-0.18l-5.62-3.69l-7.03,0.41c-0.25,0.03-0.53-0.06-0.74-0.23
				l-3.71-2.84l-7.1-0.83c-0.28-0.03-0.54-0.18-0.72-0.39c-1.93-2.32-4.3-4.36-5.07-4.36c-0.38,0-0.77,0.02-1.17,0.03
				c-1.88,0.08-4.01,0.16-5.15-1.34c-0.36-0.47-0.71-1.14-1.09-1.85c-0.47-0.88-1.25-2.36-1.79-2.52c-1.47-0.43-8.35-2.15-8.35-2.15
				c-0.36-0.09-0.65-0.36-0.78-0.7l-2.32-6.5l-8.48-4.13c-0.26-0.13-0.47-0.36-0.56-0.64l-1.37-4.01l-6.64-4.99
				c-0.14-0.11-0.26-0.25-0.33-0.41l-2.3-4.85l-7.55-3.72c-0.38-0.19-0.62-0.57-0.62-0.99v-9.45l-6.04-5.3
				c-0.25-0.22-0.39-0.54-0.38-0.87l0.49-13.42c0.01-0.13,0.03-0.25,0.08-0.37l3.45-8.65l4.4-18.03c0.13-0.51,0.57-0.88,1.11-0.84
				c0.52,0.02,0.96,0.4,1.05,0.92l2.83,16.11l1.7,0.3c0.57,0.1,0.97,0.63,0.91,1.21l-0.39,3.77l4.96,1.09
				c0.47,0.1,0.81,0.49,0.86,0.96l0.89,8.16l5.49,0.37c0.48,0.03,0.88,0.36,1,0.83l1.27,4.83c1.89,0.11,5.67,0.65,5.67,3.25
				c0,1.34,1.58,6.04,2.69,9.03l5.87,1.58c0.43,0.11,0.75,0.48,0.81,0.92l1.41,10.33l6.51,4.48c0.19,0.13,0.33,0.31,0.41,0.52
				c1.17,3.07,2.91,6.04,3.65,6.24c0.62,0.13,1.52,0.12,2.38,0.1c1.82-0.03,3.73-0.08,4.68,1.18c0.37,0.48,0.6,1.06,0.84,1.67
				c0.54,1.35,1.05,2.63,2.99,3.12c1.93,0.48,3.83,1.46,5.37,2.24c1.03,0.53,2.31,1.19,2.75,1.19c0.91,0,3.37-0.69,4.87-1.17
				l4.62-4.05l2.28-4l0.95-5.44c0.06-0.38,0.32-0.69,0.68-0.84l6.42-2.57c0.2-0.08,0.43-0.1,0.64-0.06l1.98,0.41l8.28,0.85
				c0.44,0.04,0.81,0.34,0.94,0.76l0.72,2.2c1.04-0.04,2.42,0.05,3.17,0.72c0.39,0.34,0.61,0.81,0.61,1.32
				c0.07,0.42,1.26,1.66,2.5,2.57l2.87,1.67c0.99,0.58,2.15,1.09,2.81,1.25c0.2-2.16,1.35-6.53,1.49-7.07
				c0.14-0.53,0.66-0.89,1.19-0.82c0.38,0.03,1.59,0.02,2.22-0.56c0.34-0.3,0.5-0.75,0.5-1.37c0-0.83-0.03-1.72-0.06-2.63
				c-0.1-2.98-0.2-6.06,0.61-8.54c0.84-2.59,2.36-6.02,2.85-7.12c-0.32-1.41-1.19-6.21,0.73-9.15c1.69-2.59,2.29-10.92,2.29-12.81
				c0-1.33,2.01-6.49,2.96-8.87v-6.28c0-0.13,0.03-0.27,0.07-0.39l5.43-14.28c0.18-0.47,0.63-0.8,1.17-0.71
				c0.51,0.06,0.91,0.47,0.96,0.97c0.58,5.04,1.88,9.85,2.79,10.3c0.26-0.08,0.66,0.02,1,0.26c0.89,0.66,1.12,2.16,1.57,5.48
				c0.4,2.99,0.95,7.09,2.33,8.96c0.17,0.24,0.25,0.53,0.2,0.83c-0.04,0.29-0.2,0.55-0.44,0.73l-2.28,1.67l2.17,5.7
				c0.11,0.3,0.1,0.63-0.05,0.91s-0.41,0.49-0.71,0.56l-2.29,0.57l1.09,3.19c0.08,0.23,0.08,0.49,0,0.72l-1.39,4.07l0.94,6.22
				c0.06,0.41-0.11,0.83-0.45,1.07c-0.35,0.24-0.8,0.28-1.16,0.08l-0.43-0.23l1.05,5.53c0.06,0.3-0.01,0.6-0.19,0.85
				c-0.17,0.25-0.44,0.41-0.74,0.45l-1.92,0.28l0.89,9.77c0.03,0.4-0.15,0.8-0.49,1.02c-0.34,0.22-0.78,0.25-1.13,0.06l-0.43-0.23
				l1.05,5.53c0.06,0.29,0,0.59-0.17,0.84c-0.17,0.24-0.43,0.41-0.72,0.46l-1.47,0.26l0.41,5.05c0.04,0.5-0.26,0.97-0.74,1.14
				l-1.66,0.58l0.42,5.2c0.04,0.47-0.23,0.92-0.66,1.11l-5.26,2.31v3.17c0,0.52-0.36,0.97-0.87,1.08l-3.35,0.73l-1.77,5.04
				c-0.18,0.5-0.68,0.81-1.22,0.73l-5.01-0.8l-5.08,3.24c-0.21,0.13-0.46,0.19-0.71,0.17l-4.15-0.4l-7.64,3.35
				c-0.17,0.07-0.37,0.1-0.53,0.09l-4.96-0.39l-2.11,1.85c-0.24,0.21-0.55,0.31-0.87,0.27l-6.71-0.84l-3.25,0.81
				C312.64,446.16,312.55,446.17,312.45,446.17z M315.91,443.09c0.05,0,0.09,0,0.14,0.01l6.42,0.8l2.09-1.83
				c0.23-0.2,0.57-0.29,0.82-0.27l5.15,0.41l7.65-3.35c0.17-0.08,0.36-0.11,0.55-0.09l4.06,0.4l5.11-3.26
				c0.23-0.15,0.5-0.21,0.77-0.16l4.51,0.72l1.67-4.75c0.13-0.36,0.44-0.63,0.81-0.71l3.08-0.67v-3c0-0.44,0.26-0.84,0.66-1.02
				l5.2-2.28l-0.43-5.27c-0.04-0.5,0.26-0.97,0.74-1.14l1.66-0.58l-0.42-5.21c-0.05-0.57,0.35-1.09,0.91-1.18l1.36-0.24l-1.27-6.68
				c-0.08-0.42,0.09-0.84,0.43-1.1c0.34-0.26,0.81-0.29,1.17-0.09l0.66,0.35l-0.8-8.79c-0.05-0.59,0.36-1.11,0.94-1.2l1.82-0.26
				l-1.26-6.65c-0.08-0.42,0.09-0.84,0.43-1.1c0.34-0.25,0.8-0.29,1.17-0.09l0.53,0.28l-0.66-4.32c-0.03-0.18-0.01-0.36,0.05-0.53
				l1.36-3.97l-1.36-3.97c-0.1-0.29-0.07-0.62,0.07-0.89c0.15-0.27,0.4-0.47,0.71-0.55l2.24-0.56l-2.02-5.33
				c-0.18-0.47-0.02-0.99,0.38-1.29l2.14-1.56c-1.27-2.42-1.75-6.04-2.16-9.03c-0.18-1.35-0.42-3.15-0.68-3.85
				c-0.32-0.04-0.68-0.16-1.06-0.44c-1.46-1.1-2.42-4.58-2.99-7.58l-3.85,10.15v6.29c0,0.14-0.03,0.28-0.08,0.41
				c-1.36,3.39-2.85,7.5-2.88,8.24c0,0.1-0.28,10.38-2.65,14.02c-1.4,2.15-0.73,6.33-0.35,7.77c0.06,0.25,0.04,0.51-0.06,0.74
				c-0.02,0.04-1.96,4.31-2.92,7.24c-0.68,2.1-0.59,4.99-0.5,7.78c0.03,0.93,0.06,1.84,0.06,2.7c0,1.58-0.68,2.52-1.24,3.02
				c-0.92,0.83-2.12,1.07-2.96,1.12c-0.56,2.21-1.23,5.22-1.23,6.24c0,0.63-0.29,1.17-0.81,1.46c-1.25,0.71-3.57-0.35-5.31-1.37
				l-2.96-1.73c-1.06-0.77-3.24-2.52-3.49-4.13c-0.41-0.13-1.39-0.16-2.23-0.06c-0.56,0.07-1.03-0.26-1.19-0.76l-0.77-2.35
				l-7.67-0.79l-1.76-0.36l-5.54,2.22L317,414.1c-0.02,0.13-0.06,0.24-0.13,0.36l-2.47,4.33c-0.06,0.11-0.14,0.2-0.23,0.28
				l-4.93,4.33c-0.11,0.1-0.24,0.17-0.39,0.22c-0.42,0.14-4.17,1.36-5.78,1.36c-0.97,0-2.15-0.6-3.77-1.43
				c-1.5-0.77-3.21-1.65-4.89-2.07c-3.04-0.76-3.92-2.98-4.51-4.45c-0.19-0.47-0.36-0.91-0.55-1.15c-0.28-0.36-1.96-0.33-2.87-0.31
				c-1,0.02-2.03,0.04-2.9-0.15c-2.2-0.48-4.23-5.02-5.12-7.29l-6.63-4.57c-0.26-0.18-0.43-0.45-0.47-0.76l-1.38-10.09l-5.71-1.54
				c-0.34-0.09-0.62-0.34-0.75-0.68c-0.31-0.82-3.04-8.05-3.04-10.35c0-0.4-1.98-1.05-4.32-1.05c-0.5,0-0.94-0.34-1.07-0.83
				l-1.28-4.86l-5.62-0.38c-0.54-0.04-0.97-0.45-1.03-0.99l-0.9-8.29l-5.15-1.13c-0.55-0.12-0.92-0.64-0.86-1.2l0.39-3.73
				l-1.45-0.26c-0.46-0.08-0.82-0.44-0.9-0.9l-2.05-11.67l-3.19,13.04l-3.43,8.62l-0.47,12.7l6.02,5.28
				c0.24,0.21,0.38,0.52,0.38,0.83v9.26l7.28,3.59c0.23,0.11,0.4,0.29,0.51,0.52l2.35,4.95l6.69,5.03c0.18,0.13,0.31,0.32,0.38,0.53
				l1.33,3.89l8.47,4.13c0.26,0.13,0.46,0.35,0.56,0.62l2.27,6.37c1.7,0.43,6.64,1.67,7.86,2.03c1.44,0.42,2.33,2.12,3.13,3.61
				c0.31,0.59,0.6,1.15,0.9,1.54c0.44,0.58,2.01,0.52,3.29,0.46c0.43-0.02,0.85-0.03,1.26-0.03c2.13,0,5.22,3.34,6.48,4.82
				l6.97,0.81c0.2,0.02,0.39,0.1,0.55,0.22l3.62,2.78l6.99-0.41c0.23-0.03,0.48,0.05,0.68,0.18l5.52,3.63l2.98-0.75
				C315.73,443.1,315.82,443.09,315.91,443.09z"/>
		</g>
		<g>
			<path class="st16" d="M300.94,245.36c0,0-0.59-0.52-1.73-1.16c-0.57-0.32-1.28-0.68-2.11-1.01c-0.83-0.34-1.79-0.65-2.86-0.92
				c-1.06-0.26-2.23-0.48-3.48-0.59c-1.25-0.13-2.58-0.16-3.94-0.02c-1.36,0.12-2.75,0.45-4.13,0.85c-1.38,0.41-2.77,0.86-4.14,1.35
				c-0.68,0.25-1.37,0.49-2.03,0.77c-0.67,0.27-1.33,0.55-1.97,0.86c-0.65,0.29-1.28,0.61-1.89,0.95c-0.62,0.32-1.21,0.68-1.79,1.03
				c-0.59,0.34-1.14,0.71-1.68,1.07c-0.27,0.18-0.54,0.36-0.8,0.54c-0.26,0.19-0.51,0.38-0.76,0.57c-1.01,0.73-1.89,1.5-2.72,2.18
				c-0.79,0.74-1.53,1.39-2.14,2.02c-0.61,0.63-1.15,1.16-1.55,1.65c-0.82,0.95-1.29,1.49-1.29,1.49l0.37,0.41
				c0,0,0.56-0.42,1.54-1.15c0.48-0.37,1.11-0.76,1.8-1.25c0.68-0.49,1.52-0.95,2.38-1.5c0.9-0.5,1.85-1.06,2.9-1.56
				c0.52-0.27,1.05-0.52,1.61-0.76c0.55-0.25,1.12-0.51,1.7-0.72c0.58-0.23,1.17-0.47,1.79-0.66c0.61-0.21,1.22-0.43,1.84-0.61
				c0.62-0.2,1.25-0.38,1.89-0.53c0.63-0.18,1.28-0.31,1.92-0.44c0.64-0.14,1.29-0.23,1.94-0.32c0.65-0.07,1.3-0.13,1.94-0.17
				c1.27-0.07,2.53-0.13,3.75-0.2c1.21-0.1,2.37-0.22,3.49-0.36c1.12-0.13,2.19-0.26,3.17-0.37c1.98-0.22,3.69-0.43,4.91-0.6
				c0.61-0.08,1.1-0.15,1.43-0.2c0.34-0.05,0.52-0.08,0.52-0.08L300.94,245.36z"/>
			<path class="st3" d="M260.21,258.14l-1.03-1.15l1.6-1.86c0.27-0.33,0.62-0.69,1-1.08l0.56-0.58c0.43-0.46,0.94-0.92,1.48-1.42
				l1.25-1.11c0.69-0.57,1.4-1.17,2.2-1.75l1.57-1.11c0.55-0.37,1.12-0.75,1.72-1.1c0.61-0.37,1.2-0.72,1.81-1.04
				c0.62-0.35,1.28-0.68,1.93-0.97c0.64-0.31,1.31-0.6,1.99-0.87c0.55-0.24,1.13-0.45,1.72-0.66l0.33-0.12
				c1.42-0.51,2.82-0.96,4.17-1.36c1.68-0.48,3.03-0.75,4.24-0.86c1.33-0.13,2.69-0.12,4.05,0.02c1.1,0.1,2.23,0.29,3.55,0.6
				c1.08,0.27,2.06,0.59,2.94,0.95c0.92,0.36,1.68,0.76,2.17,1.04c1.18,0.66,1.81,1.21,1.83,1.23l0.26,0.23l-0.33,1.22l-0.88,0.13
				c-0.33,0.05-0.82,0.12-1.44,0.21c-1.22,0.17-2.93,0.38-4.92,0.6l-3.17,0.37c-1.12,0.14-2.3,0.26-3.51,0.36l-3.76,0.2
				c-0.63,0.04-1.27,0.1-1.91,0.17c-0.62,0.09-1.25,0.18-1.88,0.31l-0.2,0.04c-0.56,0.12-1.13,0.24-1.69,0.39
				c-0.65,0.16-1.26,0.33-1.86,0.52c-0.49,0.14-0.94,0.3-1.39,0.45l-0.45,0.16c-0.6,0.19-1.17,0.42-1.74,0.65
				c-0.6,0.22-1.15,0.47-1.68,0.71c-0.56,0.25-1.09,0.5-1.59,0.76c-0.82,0.39-1.56,0.8-2.27,1.21l-0.62,0.35
				c-0.31,0.2-0.65,0.4-0.97,0.6c-0.49,0.29-0.94,0.57-1.35,0.86c-0.27,0.19-0.53,0.37-0.78,0.53c-0.37,0.25-0.71,0.48-1,0.7
				L260.21,258.14z M288.66,242.12c-0.61,0-1.2,0.03-1.79,0.09c-1.14,0.1-2.43,0.37-4.04,0.83c-1.33,0.39-2.71,0.84-4.1,1.34
				l-0.33,0.12c-0.56,0.2-1.12,0.4-1.66,0.64c-0.68,0.27-1.32,0.55-1.95,0.85c-0.64,0.28-1.26,0.6-1.87,0.94
				c-0.61,0.31-1.17,0.66-1.73,0.99c-0.62,0.36-1.17,0.73-1.7,1.08l-1.53,1.09c-0.78,0.57-1.48,1.15-2.15,1.71l-1.21,1.07
				c-0.52,0.48-1.01,0.92-1.43,1.37l-0.58,0.6c-0.22,0.22-0.42,0.43-0.6,0.63c0.18-0.13,0.37-0.25,0.57-0.39
				c0.24-0.16,0.49-0.33,0.75-0.52c0.42-0.3,0.9-0.6,1.42-0.91c0.32-0.19,0.65-0.39,0.98-0.61l0.64-0.36
				c0.73-0.41,1.49-0.84,2.33-1.23c0.51-0.26,1.05-0.52,1.62-0.77c0.57-0.26,1.14-0.52,1.74-0.73c0.59-0.24,1.19-0.48,1.81-0.67
				l0.44-0.15c0.47-0.16,0.94-0.32,1.43-0.46c0.61-0.2,1.26-0.38,1.91-0.54c0.56-0.16,1.15-0.28,1.74-0.4l0.19-0.04
				c0.65-0.14,1.32-0.24,1.98-0.33c0.68-0.07,1.33-0.14,1.98-0.18l3.75-0.2c1.18-0.09,2.34-0.22,3.45-0.35l3.17-0.37
				c1.98-0.22,3.68-0.43,4.89-0.6c0.58-0.08,1.04-0.14,1.37-0.19c-0.27-0.2-0.68-0.47-1.2-0.76c-0.46-0.26-1.18-0.64-2.04-0.97
				c-0.83-0.34-1.77-0.64-2.79-0.9c-1.26-0.3-2.34-0.48-3.4-0.57C290.02,242.16,289.34,242.12,288.66,242.12z"/>
		</g>
		<g>
			<path class="st16" d="M336.19,244.04c0,0,0.51-0.51,1.49-1.14c0.49-0.31,1.1-0.67,1.82-0.99c0.72-0.34,1.54-0.64,2.46-0.91
				c0.92-0.25,1.92-0.48,3-0.58c1.07-0.13,2.22-0.15,3.39-0.02c1.17,0.12,2.37,0.45,3.56,0.83c1.19,0.4,2.38,0.84,3.56,1.33
				c0.59,0.24,1.18,0.48,1.75,0.76c0.58,0.26,1.14,0.55,1.7,0.85c0.56,0.29,1.1,0.6,1.63,0.94c0.53,0.32,1.04,0.67,1.54,1.02
				c0.51,0.33,0.98,0.7,1.45,1.06c0.23,0.18,0.46,0.35,0.69,0.53c0.22,0.19,0.44,0.37,0.65,0.56c0.87,0.72,1.63,1.48,2.34,2.15
				c0.68,0.73,1.32,1.37,1.84,2c0.52,0.63,0.99,1.14,1.34,1.62c0.7,0.93,1.11,1.47,1.11,1.47l-0.32,0.4c0,0-0.48-0.41-1.33-1.13
				c-0.41-0.37-0.95-0.75-1.55-1.23c-0.59-0.48-1.31-0.93-2.05-1.48c-0.77-0.49-1.59-1.05-2.5-1.54c-0.44-0.26-0.91-0.51-1.39-0.75
				c-0.48-0.25-0.96-0.5-1.47-0.71c-0.5-0.23-1.01-0.46-1.54-0.66c-0.52-0.21-1.05-0.42-1.59-0.6c-0.53-0.2-1.08-0.37-1.63-0.53
				c-0.54-0.17-1.1-0.3-1.65-0.44c-0.55-0.13-1.11-0.23-1.67-0.32c-0.56-0.07-1.12-0.13-1.67-0.17c-1.1-0.07-2.18-0.13-3.23-0.2
				c-1.04-0.09-2.04-0.22-3-0.35c-0.97-0.13-1.88-0.25-2.73-0.36c-1.71-0.22-3.17-0.43-4.22-0.59c-0.53-0.08-0.95-0.15-1.23-0.2
				c-0.29-0.05-0.44-0.08-0.44-0.08L336.19,244.04z"/>
			<path class="st3" d="M371.26,256.71l-1.76-1.51c-0.25-0.22-0.54-0.44-0.85-0.69c-0.22-0.17-0.45-0.34-0.68-0.53
				c-0.35-0.28-0.73-0.55-1.14-0.83c-0.29-0.2-0.58-0.41-0.89-0.63l-0.51-0.32c-0.6-0.39-1.23-0.8-1.92-1.17
				c-0.45-0.27-0.9-0.51-1.37-0.75c-0.47-0.25-0.94-0.49-1.44-0.7c-0.55-0.25-1.02-0.47-1.51-0.64l-0.38-0.15
				c-0.39-0.16-0.79-0.31-1.2-0.45c-0.54-0.2-1.07-0.37-1.6-0.52c-0.45-0.14-0.89-0.25-1.33-0.36l-0.3-0.08
				c-0.54-0.13-1.08-0.22-1.62-0.31c-0.53-0.06-1.08-0.13-1.62-0.17l-3.22-0.19c-1.07-0.1-2.07-0.22-3.04-0.36l-2.73-0.36
				c-1.71-0.22-3.18-0.43-4.24-0.6c-0.53-0.08-0.95-0.15-1.25-0.2l-0.8-0.14l-0.28-1.19l0.22-0.22c0.03-0.02,0.57-0.56,1.59-1.22
				c0.47-0.3,1.11-0.69,1.9-1.03c0.75-0.35,1.6-0.66,2.53-0.93c1.12-0.31,2.13-0.5,3.09-0.6c1.17-0.15,2.35-0.15,3.5-0.02
				c1.05,0.11,2.18,0.37,3.67,0.86c1.23,0.42,2.44,0.87,3.6,1.34l0.37,0.16c0.47,0.2,0.94,0.39,1.41,0.62
				c0.58,0.27,1.15,0.55,1.72,0.87c0.56,0.29,1.12,0.61,1.66,0.95c0.52,0.31,1.04,0.67,1.54,1.02c0.52,0.34,1.01,0.71,1.49,1.08
				l1.36,1.1c0.72,0.6,1.35,1.21,1.97,1.8l0.9,0.91c0.51,0.53,0.98,1.03,1.39,1.52l0.47,0.55c0.34,0.4,0.65,0.76,0.89,1.1l1.35,1.8
				L371.26,256.71z M336.93,244.12c0.28,0.05,0.67,0.11,1.14,0.18c1.05,0.17,2.51,0.37,4.21,0.59l2.73,0.36
				c0.96,0.13,1.95,0.25,2.98,0.35l3.21,0.19c0.57,0.04,1.13,0.11,1.7,0.18c0.59,0.09,1.16,0.19,1.73,0.33l0.3,0.07
				c0.46,0.11,0.93,0.23,1.39,0.37c0.54,0.15,1.1,0.33,1.65,0.53c0.41,0.13,0.82,0.3,1.24,0.47l0.36,0.14c0.51,0.18,1,0.41,1.5,0.64
				c0.57,0.24,1.07,0.5,1.56,0.76c0.49,0.24,0.96,0.5,1.41,0.77c0.69,0.37,1.35,0.8,1.98,1.2l0.54,0.34
				c0.32,0.24,0.62,0.44,0.89,0.64c0.43,0.3,0.84,0.58,1.2,0.88c0.23,0.18,0.45,0.36,0.66,0.52c0.05,0.03,0.09,0.07,0.13,0.1
				c-0.11-0.13-0.22-0.26-0.34-0.4l-0.48-0.57c-0.39-0.47-0.84-0.94-1.33-1.46l-0.87-0.87c-0.6-0.58-1.22-1.17-1.91-1.75l-1.32-1.07
				c-0.46-0.35-0.93-0.71-1.42-1.04c-0.51-0.35-1-0.7-1.52-1c-0.53-0.34-1.06-0.64-1.6-0.92c-0.56-0.31-1.11-0.58-1.68-0.84
				c-0.45-0.22-0.91-0.41-1.36-0.6l-0.38-0.16c-1.13-0.47-2.32-0.91-3.52-1.31c-1.4-0.46-2.47-0.71-3.44-0.81
				c-1.08-0.13-2.17-0.11-3.26,0.02c-0.91,0.09-1.86,0.28-2.92,0.57c-0.87,0.25-1.67,0.55-2.37,0.87c-0.73,0.32-1.32,0.68-1.76,0.96
				C337.52,243.66,337.17,243.93,336.93,244.12z"/>
		</g>
		<g>
			<g>
				<circle class="st11" cx="291.82" cy="285.44" r="25.76"/>
				<path class="st3" d="M291.82,312.31c-14.82,0-26.87-12.05-26.87-26.87c0-14.82,12.05-26.87,26.87-26.87
					c14.81,0,26.87,12.05,26.87,26.87C318.69,300.26,306.64,312.31,291.82,312.31z M291.82,260.79c-13.6,0-24.65,11.06-24.65,24.65
					c0,13.59,11.06,24.65,24.65,24.65c13.59,0,24.65-11.06,24.65-24.65C316.47,271.85,305.42,260.79,291.82,260.79z"/>
			</g>
			<circle class="st3" cx="296.01" cy="286.41" r="2.51"/>
		</g>
		<path class="st8" d="M184.52,463.1c-22.54,2.65-109.87,4.13-137.88,25.19c-14.58,10.96-51.59,98.07-33.07,147.46
			c8.79,23.44,22.92,170.2,22.46,224.62c-0.98,115.24-42.43,159.56-43.75,176.79c-1.33,17.23,30.49-43.75,83.52-38.45
			s100.76,29.17,102.08-42.42c1.33-71.59-13.26-177.65-1.33-210.8c11.93-33.14,11.93-98.11,18.56-136.55
			c6.63-38.45,34.47-90.15,31.82-104.74c-2.65-14.58-33.14-35.8-33.14-35.8L184.52,463.1z"/>
		<path class="st21" d="M32.13,646.49C13.61,597.1,50.61,510,65.19,499.03c27.33-20.54,111.09-22.45,136.09-25
			c-4.34-3.44-7.48-5.63-7.48-5.63l-9.28-5.3c-22.54,2.65-109.87,4.13-137.88,25.19c-14.58,10.96-51.59,98.07-33.07,147.46
			c8.79,23.44,22.92,170.2,22.46,224.62c-0.98,115.24-42.43,159.56-43.75,176.79c-0.83,10.78,11.31-9.05,33.5-24.11
			c12.44-27.45,28.21-71.39,28.8-141.94C55.05,816.69,40.92,669.93,32.13,646.49z"/>
		<g>
			<path class="st3" d="M-6.67,1041.92c-0.38,0-0.75-0.08-1.1-0.25c-1.89-0.89-1.68-3.51-1.6-4.63c0.37-4.86,3.62-11.5,8.1-20.69
				c12.21-24.99,34.93-71.51,35.64-155.99c0.49-57.1-13.93-201.56-22.36-224.02c-18.71-49.91,17.96-137.6,33.62-149.37
				c23-17.29,83.35-21.47,119.4-23.97c8.37-0.58,14.98-1.04,19.29-1.54l0.54-0.06l9.76,5.57c1.39,0.96,31.21,21.86,33.96,36.94
				c1.41,7.79-4.79,24.05-12.64,44.63c-7.46,19.56-15.91,41.72-19.18,60.68c-2.49,14.45-4.03,32.51-5.66,51.63
				c-2.69,31.65-5.48,64.37-12.98,85.2c-7.24,20.1-4.54,67.9-1.69,118.5c1.78,31.57,3.62,64.21,3.11,91.76
				c-0.41,21.94-5.22,36.44-14.72,44.34c-13.95,11.6-35.84,7.95-61.2,3.73c-9.05-1.51-18.42-3.07-27.99-4.02
				c-33.89-3.4-58.78,20.77-72.14,33.75C-1.85,1039.31-4.54,1041.92-6.67,1041.92z M184.17,464.82c-4.38,0.49-10.83,0.94-18.9,1.49
				c-33.35,2.31-95.41,6.61-117.63,23.31c-14.77,11.11-50.35,97.96-32.51,145.54c9.15,24.4,23.02,172.45,22.57,225.22
				c-0.72,85.23-23.66,132.19-35.98,157.42c-4.32,8.86-7.45,15.26-7.77,19.48c-0.03,0.42-0.04,0.74-0.03,0.98
				c1.51-0.95,4.55-3.9,7.27-6.54c13.75-13.36,39.36-38.24,74.79-34.67c9.68,0.97,19.1,2.54,28.2,4.05
				c24.55,4.09,45.75,7.62,58.53-3.01c8.71-7.25,13.14-20.93,13.52-41.85c0.51-27.43-1.33-60.01-3.11-91.51
				c-2.87-50.95-5.59-99.08,1.88-119.82c7.35-20.42,10.12-52.92,12.79-84.36c1.64-19.19,3.18-37.32,5.69-51.92
				c3.32-19.28,11.84-41.6,19.35-61.3c7.36-19.31,13.72-35.98,12.47-42.86c-2.5-13.75-32.16-34.52-32.46-34.73L184.17,464.82z"/>
		</g>
		<g>
			<path class="st23" d="M216.95,513.92c0,0-31.25,54.69-31.25,107.43c0,52.74-12.7,117.19-22.46,132.82
				c-9.77,15.63,0.98,122.08,0.98,122.08s10.74,99.61-5.86,123.05s28.32-10.74,21.49-50.78C173,908.46,173,770.76,173,770.76
				s25.39-111.33,26.37-149.42c0.98-38.09,20.51-82.03,20.51-82.03L216.95,513.92z"/>
			<path class="st3" d="M155.21,1008.05c-0.68,0-1.07-0.32-1.28-0.57c-0.73-0.88-0.88-2.62,3.52-8.83
				c16.17-22.83,5.77-121.3,5.66-122.29c-0.44-4.37-10.67-107.02-0.81-122.78c9.83-15.72,22.29-81.13,22.29-132.23
				c0-52.42,31.08-107.43,31.4-107.98l1.68-2.93l3.35,29.05l-0.12,0.28c-0.19,0.44-19.45,44.19-20.41,81.61
				c-0.97,37.76-26.14,148.52-26.4,149.64c0.03,1.13,0.11,137.82,6.85,177.31c5.09,29.79-18.25,56.58-24.36,59.39
				C156.03,1007.96,155.58,1008.05,155.21,1008.05z M216.25,517.54c-6.45,12.24-29.44,59.02-29.44,103.81
				c0,52.35-12.44,117.11-22.63,133.4c-9.46,15.13,1.03,120.32,1.14,121.38c0.44,4.08,10.59,100.29-6.06,123.8
				c-2.21,3.12-3.03,4.79-3.33,5.63c1.43-0.79,4.47-3.33,8.16-7.95c4.45-5.56,18.65-25.52,14.66-48.92
				c-6.77-39.67-6.85-176.55-6.85-177.93c0.28-1.36,25.41-111.91,26.37-149.45c0.93-36.29,18.82-78.34,20.48-82.18L216.25,517.54z"
				/>
		</g>
		<path class="st21" d="M216.71,491.2c-2.56-2.24-2.03-4.16,0-5.76V471c-5.22-0.51-11.8-0.76-20.21-0.58
			c-42.84,0.91-19.16,53.72-19.16,53.72s-3.38-16.39,27.05-17.3c5.18-0.15,9.19,0.92,12.32,2.78V491.2z"/>
		<g>
			<path class="st8" d="M218.78,538.45c0,0,6.71-44.31-19.65-43.34s-23.44,18.56-23.44,18.56s-20.51-56.64,16.6-57.62
				s34.18,9.77,34.18,9.77s-17.95,6.1-5.49,17.33C241.74,501.88,225.62,530.64,218.78,538.45z"/>
			<path class="st3" d="M217.12,542.04l0.57-3.75c0.04-0.26,3.81-26.07-6.06-37.13c-3.09-3.46-7.32-5.12-12.46-4.93
				c-9.25,0.34-15.78,2.77-19.41,7.22c-3.82,4.68-2.99,9.99-2.98,10.04l-2.14,0.56c-0.5-1.37-12.05-33.82-0.93-50.13
				c3.91-5.73,10.15-8.75,18.54-8.97c23.2-0.59,31.34,3.39,34.05,6.84c1.74,2.21,1.28,4.11,1.23,4.32l-0.15,0.57l-0.56,0.19
				c-0.08,0.03-8.04,2.8-9.04,7.65c-0.49,2.39,0.83,5.01,3.93,7.81c22.11,19.94,3.96,49.92-2.11,56.85L217.12,542.04z
				 M199.98,493.99c5.46,0,9.93,1.91,13.3,5.69c8.21,9.2,7.74,26.96,7.05,34.93c6.87-9.92,18.26-34.08-0.1-50.63
				c-3.73-3.36-5.28-6.69-4.62-9.9c1.07-5.17,7.6-8.17,9.79-9.04c-0.05-0.45-0.24-1.16-0.93-1.99c-2.03-2.46-8.89-6.53-32.16-5.89
				c-7.64,0.2-13.28,2.89-16.76,8c-7.89,11.56-3.31,32.77-0.51,42.72c0.5-1.83,1.4-3.87,3-5.84c4.05-4.96,11.13-7.67,21.04-8.03
				C199.38,494,199.68,493.99,199.98,493.99z"/>
		</g>
		<g>
			<path class="st3" d="M228.4,395.94c-1.86,0-3.05-2.47-3.9-4.72c-1.3-1.86-17.28-24.95-32.36-54.88
				c-14.48-28.73-31.06-69.84-27.86-102.5c1.07-10.89,15.06-75.83,29.72-87.2c18.84-14.61,53.93-23.4,82.13-30.46
				c4.79-1.2,9.34-2.34,13.49-3.43c23.03-6.08,69.87,19.95,93.32,41.27c13.66,12.42,17.84,36.9,12.44,72.77
				c-4,26.53-12.05,49.77-12.13,50.01l-1.61,4.59l-6.38-56.66c-1.12-2.36-14.81-30.53-33.74-34.92c-7.29-1.68-14.56,0.39-21.61,6.17
				c-20.02,16.42-30.87,17.29-36.22,15.6c-0.03,0.07-0.06,0.13-0.09,0.17c-0.86,1.36-3.39,1.17-9.52,0.57
				c-4.77-0.46-12.76-1.25-14.06,0.57c-0.23,0.32-0.18,0.84,0.14,1.54c2.76,6.07,0.76,7.88-2.61,9.94c-1.59,0.98-3.4,2.08-4.79,4.29
				c-2.73,4.36-8.89,15.15-7.2,21.08c1.64,5.72,4.32,25.68,4.43,26.53l3.08,58.46l-17.45-16l1.97,20.64l0,0.08
				c-0.64,16.65-2.79,55.48-8.84,56.44C228.63,395.93,228.52,395.94,228.4,395.94z M297.18,114.09c-2.53,0-4.88,0.26-6.99,0.82
				c-4.16,1.09-8.71,2.23-13.51,3.44c-26.52,6.64-62.84,15.74-81.31,30.06c-13.9,10.78-27.86,75.31-28.87,85.66
				c-6.05,61.58,59.24,155.06,59.9,156l0.13,0.25c1.17,3.15,1.91,3.41,1.92,3.41c2.99-1.13,5.94-29.03,6.92-54.27l-2.5-26.24
				l17.71,16.23l-2.79-52.96c-0.02-0.12-2.76-20.55-4.36-26.12c-1.87-6.54,3.87-17.14,7.45-22.87c1.66-2.65,3.79-3.96,5.51-5.01
				c2.68-1.64,3.9-2.38,1.75-7.13c-0.84-1.84-0.42-3.05,0.07-3.75c1.89-2.66,7.86-2.3,16.08-1.49c2.43,0.24,5.61,0.56,7.01,0.41
				c-0.23-0.39-0.49-0.99,0.04-1.55c0.61-0.63,1.35-0.24,1.59-0.11c3.23,1.73,13.16,3.77,35.57-14.61
				c7.61-6.24,15.52-8.47,23.52-6.61c20.73,4.8,34.74,35.02,35.33,36.31l0.09,0.34l5.29,46.9c6.01-19.34,25.84-90.89-1.27-115.54
				C361.09,137.16,320.94,114.09,297.18,114.09z"/>
		</g>
		<path class="st16" d="M355.09,140.59c0,0,12.23-28.95,33.47-13.48s-3.4,9.22-3.4,9.22s-5.8-2.26-15.72,8.6
			c0,0,9.54-11.58,26.31,0.73s24.41,19.85,34.58,18.11c10.17-1.74-15.78,10.29-27.59,5.51s-10.95-8.54-23.96-3.44L355.09,140.59z"/>
		<path class="st16" d="M306.57,175.23c0,0-20.33-21.13-0.46-34.52c19.88-13.39,6.85,5.78,6.85,5.78s-4.41,5.9,1.81,17.78
			c0,0-6.96-11.78,8.82-22.32c15.77-10.54,35.54-24.66,37.22-33.92c1.67-9.26,3.91,16.73-3.87,25.37
			c-7.78,8.64-21.66,16.65-21.33,29.38L306.57,175.23z"/>
		<g>
			<path class="st3" d="M407.71,171.53c-2.69,0-5.22-0.35-7.33-1.21c-3.13-1.27-5.39-2.47-7.22-3.44c-5.07-2.69-6.78-3.59-15.92,0
				l-0.81-2.07c10.1-3.97,12.5-2.69,17.77,0.11c1.78,0.94,3.99,2.12,7.01,3.34c6.92,2.8,19.45-0.69,25.36-3.16
				c-8.03,0.46-15.09-4.77-26.09-13.07c-2.24-1.69-4.67-3.53-7.34-5.48c-13.93-10.24-22.4-3.35-24.36-1.38
				c-0.15,0.16-0.31,0.33-0.46,0.5l-1.68-1.45c0.01-0.01,0.09-0.1,0.23-0.26c10.21-11.07,16.48-8.78,16.75-8.68
				c5.31,1.34,10.13,1.49,10.51,0.7c0-0.02,0.47-1.69-8.17-7.99c-5.33-3.89-10.52-5.17-15.4-3.81
				c-10.4,2.88-16.34,16.68-16.39,16.82l-2.04-0.86c0.26-0.61,6.42-14.93,17.85-18.1c5.57-1.55,11.4-0.15,17.3,4.16
				c9.13,6.66,9.61,9.16,8.87,10.73c-1.45,3.07-9.71,1.35-13.19,0.46c-0.11-0.03-2.6-0.82-7.04,1.81
				c4.63-0.86,10.91-0.05,18.56,5.56c2.66,1.96,5.1,3.8,7.35,5.5c11.8,8.9,18.3,13.8,26.39,12.42c1.81-0.31,2.96-0.32,3.45,0.56
				c0.1,0.19,0.4,0.87-0.26,1.62C429.75,166.75,417.63,171.53,407.71,171.53z"/>
		</g>
		<g>
			<path class="st3" d="M308.26,177.17c-0.41-0.42-10.05-10.5-9.04-21.66c0.5-5.52,3.53-10.31,9.01-14.22
				c8.75-6.24,11.19-5.93,12.39-4.79c2.24,2.1-1.18,8.16-2.75,10.67l-0.39,0.37c-0.18,0.1-3.06,1.89-3.18,6.21
				c1.19-3.47,4.06-7.63,10.23-11.99c9.39-6.64,34.32-24.29,35.84-34.18c0.24-1.56,0.43-2.52,1.36-2.7l0.77-0.15l0.47,0.73
				c0.99,1.71-0.07,24.49-6.74,32.3c-3.3,3.86-6.21,5.47-8.55,6.77c-3.03,1.68-4.56,2.52-4.74,7.21l-2.22-0.09
				c0.24-5.94,2.73-7.32,5.89-9.06c2.18-1.21,4.9-2.71,7.93-6.26c4.14-4.85,5.9-16.78,6.4-24.05c-5.17,9.29-21.11,21.37-35.12,31.29
				c-12.24,8.66-10.34,15.78-9.39,17.88c0.12,0.23,0.24,0.46,0.38,0.7l-1.89,1.16c-0.01-0.01-0.11-0.16-0.25-0.44
				c-5.93-10.99,0.08-16.1,1.45-17.08c2.23-3.63,3.43-7.09,2.98-7.69c-0.06-0.03-1.46-0.81-9.58,4.98
				c-4.93,3.52-7.66,7.76-8.1,12.61c-0.92,10.15,8.33,19.82,8.43,19.91L308.26,177.17z"/>
		</g>
		<polygon class="st16" points="224.26,335.77 235.38,339.8 240.39,395.99 230.62,391.43 219.88,365.23 		"/>
		<path class="st5" d="M215.71,368.53c-10.72,14.85-21.88,5.3-29.17-3.31s5.3-25.85,15.91-36.46c10.61-10.61,0-19.89,1.33-29.17
			c1.33-9.28-25.19-25.85,5.97-32.48c31.16-6.63,15.91,50.38,15.91,50.38s-5.01,7.3-6.75,20.48
			C217.76,346.61,222.21,359.52,215.71,368.53z"/>
		<g>
			<g>
				<path class="st3" d="M201.73,377.27c-0.3,0-0.6-0.01-0.9-0.03c-5.44-0.44-9.01-4.77-12.79-9.36c-0.53-0.65-1.07-1.3-1.62-1.95
					c-9.59-11.34,11.62-33.61,15.97-37.96c6.36-6.36,4.57-12.06,2.67-18.09c-1.07-3.39-2.17-6.9-1.66-10.45
					c0.36-2.48-1.81-5.9-4.11-9.51c-3.09-4.86-6.59-10.37-4.55-15.24c1.66-3.96,6.73-6.79,15.49-8.65
					c6.53-1.38,11.65-0.19,15.21,3.56c11.49,12.1,2.4,46.72,2.01,48.19l-2.14-0.57c0.09-0.35,9.17-34.89-1.47-46.09
					c-3-3.15-7.41-4.14-13.13-2.92c-7.89,1.68-12.57,4.15-13.91,7.34c-1.59,3.8,1.44,8.57,4.37,13.19
					c2.52,3.97,4.91,7.72,4.44,11.01c-0.44,3.05,0.54,6.17,1.58,9.47c1.92,6.1,4.09,13.02-3.22,20.33
					c-12.25,12.25-21.9,27.81-15.85,34.96c0.55,0.66,1.1,1.32,1.64,1.97c3.62,4.4,6.75,8.2,11.25,8.56c3.9,0.29,8.73-2.08,14.7-7.33
					l1.46,1.66C211.07,374.73,206.13,377.27,201.73,377.27z"/>
			</g>
			
				<ellipse transform="matrix(0.429 -0.9033 0.9033 0.429 -203.106 386.5196)" class="st3" cx="204.18" cy="353.91" rx="16.9" ry="11.93"/>
			<g>
				<path class="st3" d="M215.12,322.57c-0.09,0-0.19-0.01-0.28-0.04c-0.59-0.15-0.95-0.76-0.79-1.35
					c2.14-8.23,6.2-30.22-0.69-33.17c-0.56-0.24-0.82-0.89-0.58-1.46c0.24-0.57,0.9-0.82,1.46-0.58c9.87,4.23,2.8,32.55,1.96,35.77
					C216.06,322.24,215.61,322.57,215.12,322.57z"/>
			</g>
		</g>
		<g>
			<g>
				<circle class="st11" cx="354.53" cy="285.44" r="25.76"/>
				<path class="st3" d="M354.53,312.31c-14.82,0-26.87-12.05-26.87-26.87c0-14.82,12.05-26.87,26.87-26.87
					c14.81,0,26.87,12.05,26.87,26.87C381.39,300.26,369.34,312.31,354.53,312.31z M354.53,260.79c-13.6,0-24.65,11.06-24.65,24.65
					c0,13.59,11.06,24.65,24.65,24.65c13.59,0,24.65-11.06,24.65-24.65C379.18,271.85,368.12,260.79,354.53,260.79z"/>
			</g>
			<circle class="st3" cx="358.71" cy="286.41" r="2.51"/>
		</g>
	</g>
</g>
</svg>
